<?xml version="1.0" encoding="UTF-8"?>
<svg xmlns="http://www.w3.org/2000/svg"
     width="720" height="318"
     viewBox="0 0 720 318"
     role="img" aria-label="ND logo">
  <style>
    :root {
      --ndi-mark: #ffffff;     /* N */
      --ndi-bottom: #ffffff;   /* D */
    }
    .ndi-mark { fill: var(--ndi-mark); }
    .ndi-bottom { fill: var(--ndi-bottom); }
  </style>

  <g transform="translate(0,318) scale(0.1,-0.1)" stroke="none">
    <!-- N -->
    <g class="ndi-mark">
      <path d="M870 2831 c-19 -10 -48 -37 -65 -60 l-30 -43 0 -1147 0 -1147 27 -41
c16 -24 44 -49 70 -62 41 -20 60 -21 286 -21 l242 0 0 811 c0 499 4 809 9 807
6 -2 173 -192 372 -423 199 -231 513 -594 696 -807 l335 -388 194 0 c141 0
204 4 227 14 39 16 94 76 104 114 5 15 8 533 8 1152 l0 1125 -25 44 c-17 30
-40 52 -69 68 -43 22 -52 23 -287 23 -211 0 -243 -2 -248 -16 -3 -9 -6 -357
-6 -775 l0 -759 -207 237 c-115 131 -383 438 -597 683 -510 585 -524 600 -563
616 -24 10 -86 14 -235 14 -179 0 -208 -2 -238 -19z"/>
    </g>

    <!-- D -->
    <g class="ndi-bottom">
      <path d="M3645 2835 c-43 -23 -65 -45 -86 -87 -17 -33 -19 -61 -19 -242 l0
-204 633 -5 c696 -5 727 -8 876 -69 65 -27 88 -44 161 -117 149 -151 204 -294
203 -536 -1 -196 -43 -328 -149 -466 -85 -110 -177 -171 -323 -212 -74 -21
-97 -21 -738 -25 l-663 -3 0 -207 c0 -228 8 -266 65 -310 54 -42 74 -44 675
-40 540 4 583 6 700 27 331 58 566 169 753 356 225 224 328 498 329 875 1 381
-107 658 -351 901 -153 152 -326 253 -536 314 -199 57 -201 57 -875 62 -559 3
-628 2 -655 -12z"/>
    </g>
  </g>
</svg>
