<?xml version="1.0" encoding="UTF-8"?>
<svg xmlns="http://www.w3.org/2000/svg" width="1920" height="318" viewBox="0 0 1920 318" role="img" aria-label="New Decade Insurance logo">
  <style>
    /* Change these variables to recolor the logo */
    :root {
      --ndi-mark: #003385;      /* N */
      --ndi-top: #003385;       /* NEW DECADE */
      --ndi-bottom: #414141;    /* D + INSURANCE */
    }
    .ndi-mark { fill: var(--ndi-mark); }
    .ndi-top { fill: var(--ndi-top); }
    .ndi-bottom { fill: var(--ndi-bottom); }
  </style>

  <!-- Vector paths (flat) -->
  <g transform="translate(0,318) scale(0.1,-0.1)" stroke="none">
    <g class="ndi-mark">
      <path d="M870 2831 c-19 -10 -48 -37 -65 -60 l-30 -43 0 -1147 0 -1147 27 -41
c16 -24 44 -49 70 -62 41 -20 60 -21 286 -21 l242 0 0 811 c0 499 4 809 9 807
6 -2 173 -192 372 -423 199 -231 513 -594 696 -807 l335 -388 194 0 c141 0
204 4 227 14 39 16 94 76 104 114 5 15 8 533 8 1152 l0 1125 -25 44 c-17 30
-40 52 -69 68 -43 22 -52 23 -287 23 -211 0 -243 -2 -248 -16 -3 -9 -6 -357
-6 -775 l0 -759 -207 237 c-115 131 -383 438 -597 683 -510 585 -524 600 -563
616 -24 10 -86 14 -235 14 -179 0 -208 -2 -238 -19z"/>
    </g>

    <g class="ndi-bottom">
      <path d="M3645 2835 c-43 -23 -65 -45 -86 -87 -17 -33 -19 -61 -19 -242 l0
-204 633 -5 c696 -5 727 -8 876 -69 65 -27 88 -44 161 -117 149 -151 204 -294
203 -536 -1 -196 -43 -328 -149 -466 -85 -110 -177 -171 -323 -212 -74 -21
-97 -21 -738 -25 l-663 -3 0 -207 c0 -228 8 -266 65 -310 54 -42 74 -44 675
-40 540 4 583 6 700 27 331 58 566 169 753 356 225 224 328 498 329 875 1 381
-107 658 -351 901 -153 152 -326 253 -536 314 -199 57 -201 57 -875 62 -559 3
-628 2 -655 -12z"/>
    </g>

    <g class="ndi-top">
      <path d="M14245 2820 c-120 -24 -263 -105 -338 -190 -229 -263 -219 -782 21
-1041 70 -76 129 -114 227 -146 70 -23 97 -27 220 -27 122 -1 149 2 207 22 88
31 171 85 236 156 54 60 119 181 129 240 5 31 3 34 -28 44 -88 26 -131 34
-138 26 -5 -5 -18 -39 -31 -75 -58 -169 -188 -261 -370 -261 -225 -1 -373 119
-431 352 -9 34 -14 112 -14 205 0 127 4 162 23 229 59 203 190 310 397 323
150 10 267 -43 336 -150 21 -33 44 -75 51 -93 8 -22 19 -34 31 -34 41 0 157
32 157 44 0 7 -18 49 -39 93 -69 143 -207 251 -359 282 -60 12 -227 13 -287 1z"/>
      <path d="M6550 2120 l0 -691 83 3 82 3 3 534 c1 294 4 536 5 537 1 1 153 -224
337 -500 184 -275 348 -518 363 -538 l29 -38 89 0 89 0 0 690 0 690 -85 0 -85
0 0 -535 c0 -294 -3 -535 -7 -535 -5 1 -168 240 -364 533 l-356 532 -92 3 -91
3 0 -691z"/>
      <path d="M7850 2120 l0 -690 509 0 508 0 6 73 c2 39 3 75 0 80 -2 4 -193 7
-424 7 l-419 0 0 235 0 235 303 1 c267 1 349 2 435 8 21 1 22 5 22 75 0 68 -2
75 -22 81 -11 4 -181 6 -377 4 l-356 -4 -3 213 -2 212 404 0 403 0 7 70 c4 38
4 74 1 80 -4 6 -181 10 -501 10 l-494 0 0 -690z"/>
      <path d="M8914 2793 c3 -10 61 -232 130 -493 69 -261 130 -488 135 -505 5 -16
26 -95 46 -175 52 -209 38 -190 145 -190 l89 0 15 53 c29 103 156 556 226 808
39 141 73 272 77 293 3 20 9 39 14 41 9 6 8 8 49 -145 17 -63 60 -221 96 -350
36 -129 93 -332 125 -450 33 -118 62 -223 65 -233 5 -16 16 -17 92 -15 l87 3
31 110 c17 61 48 173 69 250 20 77 41 154 46 170 14 46 64 226 100 360 17 66
40 152 51 190 29 104 78 287 78 291 0 2 -40 4 -89 4 l-88 0 -31 -122 c-45
-175 -166 -676 -208 -858 -20 -85 -40 -162 -44 -170 -10 -17 -9 -20 -40 145
-19 98 -112 457 -145 560 -7 22 -36 126 -65 230 -28 105 -54 196 -56 203 -2 9
-34 12 -113 12 l-110 0 -15 -52 c-151 -528 -235 -830 -265 -948 -20 -80 -41
-147 -46 -150 -5 -3 -15 22 -21 55 -17 91 -43 209 -70 325 -14 58 -34 143 -45
190 -10 47 -24 103 -29 125 -5 22 -23 99 -40 170 -16 72 -38 164 -47 205 l-18
75 -93 3 c-86 3 -93 1 -88 -15z"/>
      <path d="M11305 2798 c-3 -7 -4 -317 -3 -688 l3 -675 305 0 c340 0 400 7 515
60 133 60 226 179 282 360 25 84 27 101 27 270 0 156 -3 191 -22 258 -60 211
-174 337 -362 399 -60 20 -90 22 -402 26 -276 3 -339 1 -343 -10z m680 -169
c198 -64 302 -294 267 -590 -22 -183 -66 -288 -152 -362 -76 -64 -193 -87
-456 -87 -129 0 -153 2 -158 16 -9 23 -7 1029 2 1038 12 13 452 0 497 -15z"/>
      <path d="M12610 2778 c0 -18 -1 -265 -2 -548 -1 -283 -1 -579 0 -657 l2 -143
510 0 510 0 0 80 0 80 -419 0 c-373 0 -420 2 -425 16 -3 9 -6 114 -6 235 l0
219 308 2 c169 0 341 2 382 3 l75 2 0 79 0 79 -370 2 c-203 0 -376 2 -383 2
-10 1 -12 46 -10 209 l3 207 408 3 407 2 0 80 0 80 -495 0 -495 0 0 -32z"/>
      <path d="M15459 2783 c-6 -16 -37 -95 -69 -178 -190 -496 -348 -906 -390
-1015 -27 -69 -52 -133 -56 -143 -6 -16 1 -18 91 -15 l98 3 29 80 c15 44 49
137 75 208 l47 127 289 -2 290 -3 76 -195 c42 -107 80 -201 84 -207 6 -9 39
-13 107 -13 l98 0 -60 148 c-80 196 -153 376 -225 552 -33 80 -106 260 -163
400 -57 140 -108 261 -113 268 -6 8 -40 12 -103 12 -94 0 -95 0 -105 -27z
m146 -238 c20 -61 72 -205 116 -322 43 -116 79 -214 79 -217 0 -3 -104 -6
-231 -6 l-230 0 7 23 c4 12 29 81 56 152 53 138 131 371 149 444 6 23 12 41
14 39 2 -1 20 -53 40 -113z"/>
      <path d="M16280 2120 l0 -692 318 5 c349 5 408 13 518 67 211 103 330 395 296
728 -13 131 -30 198 -74 290 -58 120 -174 220 -307 264 -61 20 -92 22 -408 26
l-343 4 0 -692z m702 501 c136 -52 218 -176 243 -366 28 -216 -14 -423 -109
-540 -77 -94 -171 -119 -451 -119 l-200 -1 -3 529 -2 529 232 -5 c208 -5 239
-8 290 -27z"/>
      <path d="M17582 2123 l3 -688 513 -3 512 -2 0 80 0 80 -422 2 -423 3 -3 232
-2 233 382 2 383 3 0 80 0 80 -370 1 c-203 1 -376 2 -382 3 -10 1 -13 50 -13
211 l0 210 410 0 410 0 0 80 0 80 -500 0 -500 0 2 -687z"/>
    </g>

    <g class="ndi-bottom">
      <path d="M9244 1137 c-80 -39 -122 -109 -111 -189 11 -79 61 -120 192 -157
219 -62 235 -72 235 -146 0 -67 -56 -107 -154 -109 -100 -2 -178 40 -197 105
-12 38 -14 39 -56 39 -39 0 -43 -2 -43 -25 0 -44 41 -116 83 -146 74 -54 205
-75 301 -48 149 41 211 201 120 309 -35 40 -60 52 -179 85 -55 15 -119 34
-143 43 -75 27 -92 79 -44 133 52 59 195 62 258 7 19 -17 34 -38 34 -49 0 -10
9 -23 19 -29 25 -13 72 -9 78 7 8 19 -16 81 -44 114 -45 53 -97 72 -203 76
-84 4 -101 1 -146 -20z"/>
      <path d="M16734 1148 c-63 -20 -127 -80 -164 -152 -34 -68 -35 -71 -35 -190 0
-117 1 -124 33 -188 38 -77 84 -120 160 -148 61 -23 156 -26 219 -7 95 28 172
113 173 190 0 25 -3 27 -44 27 -41 0 -45 -2 -51 -30 -28 -125 -237 -163 -332
-59 -46 51 -67 118 -68 214 0 115 20 170 82 224 98 87 266 61 310 -46 17 -41
20 -43 62 -43 l44 0 -6 40 c-9 69 -77 138 -166 168 -41 14 -173 14 -217 0z"/>
      <path d="M6570 805 l0 -345 45 0 45 0 0 345 0 345 -45 0 -45 0 0 -345z"/>
      <path d="M7635 1137 c-3 -6 -4 -161 -3 -342 l3 -330 43 -3 42 -3 1 198 c0 109
2 209 3 223 1 14 3 45 4 69 l2 45 171 -260 c95 -142 177 -262 183 -266 6 -4
30 -8 54 -8 l42 0 0 345 0 345 -45 0 -45 0 -2 -267 -3 -267 -175 267 -175 267
-48 0 c-29 0 -49 -5 -52 -13z"/>
      <path d="M10590 928 c0 -122 5 -249 11 -282 22 -126 98 -186 244 -194 90 -5
137 6 196 45 79 52 99 144 99 466 l0 187 -49 0 -49 0 -4 -259 c-3 -245 -4
-261 -24 -288 -36 -47 -78 -66 -153 -66 -79 0 -124 20 -147 66 -16 30 -36 252
-32 357 1 19 1 70 0 113 l-2 77 -45 0 -45 0 0 -222z"/>
      <path d="M12100 804 l0 -345 43 3 42 3 3 143 3 142 107 0 c157 0 179 -17 242
-197 l33 -93 50 0 c57 0 56 -11 8 118 -41 112 -70 161 -106 180 l-30 15 35 15
c106 42 149 159 97 261 -46 90 -82 100 -339 101 l-188 0 0 -346z m416 232 c29
-29 34 -41 34 -79 0 -55 -27 -92 -78 -107 -20 -5 -92 -10 -159 -10 l-123 0 0
115 0 115 146 0 146 0 34 -34z"/>
      <path d="M13780 1140 c0 -7 -31 -91 -68 -188 -157 -405 -182 -471 -182 -482 0
-7 17 -10 47 -8 l46 3 22 60 c27 75 34 94 46 123 9 22 11 23 151 20 132 -3
144 -5 151 -23 5 -11 23 -56 40 -100 l32 -80 54 -3 c41 -2 52 0 48 10 -4 7
-67 162 -141 343 l-135 330 -55 3 c-37 2 -56 -1 -56 -8z m115 -232 c28 -73 51
-138 53 -145 3 -10 -23 -13 -107 -13 -61 0 -111 2 -111 5 0 7 66 195 85 243 9
23 20 42 24 42 3 0 29 -60 56 -132z"/>
      <path d="M15055 1128 c-3 -13 -4 -167 -3 -343 l3 -320 42 -3 43 -3 2 268 3
268 178 -268 178 -268 47 3 47 3 3 343 2 342 -45 0 -45 0 0 -260 c0 -143 -4
-260 -9 -260 -4 0 -85 117 -179 260 l-172 260 -45 0 c-38 0 -45 -3 -50 -22z"/>
      <path d="M18062 808 l3 -343 255 0 255 0 3 37 3 38 -213 2 -213 3 -3 112 -3
113 193 2 193 3 3 43 3 42 -196 0 -196 0 3 103 3 102 203 3 202 2 0 40 0 40
-250 0 -250 0 2 -342z"/>
    </g>
  </g>
</svg>
